<svg xmlns="http://www.w3.org/2000/svg" width="32" height="32" viewBox="0 0 98.11 118.68"><title>svelte-logo</title><path fill="#FF3E00" d="M91.47,30.3c-2.58-6.36-8.13-11.1-14.53-12.28-6.35-1.19-12.88,0.8-17.42,5.25l-5.93,5.86c-0.56,0.55-1.46,0.55-2.02,0 l-5.75-5.68c-4.54-4.48-11.07-6.44-17.42-5.25c-6.4,1.18-11.95,5.92-14.53,12.28c-2.61,6.38-1.44,13.6,3.05,18.82l0.4,0.44 c0.55,0.61,0.5,1.55-0.11,2.1l-0.44,0.4c-4.49,5.22-5.66,12.44-3.05,18.82c2.58,6.36,8.13,11.1,14.53,12.28 c6.35,1.19,12.88-0.8,17.42-5.25l5.93-5.86c0.56-0.55,1.46-0.55,2.02,0l5.75,5.68c4.54,4.48,11.07,6.44,17.42,5.25 c6.4-1.18,11.95-5.92,14.53-12.28c2.61-6.38,1.44-13.6-3.05-18.82l-0.4-0.44c-0.55-0.61-0.5-1.55,0.11-2.1l0.44-0.4 C92.91,43.9,94.08,36.68,91.47,30.3z"/><path fill="#FFF" d="M49.06,76.16c-8.05,0-14.58-6.53-14.58-14.58c0-8.05,6.53-14.58,14.58-14.58c8.05,0,14.58,6.53,14.58,14.58 C63.64,69.63,57.11,76.16,49.06,76.16z M49.06,50c-6.4,0-11.58,5.19-11.58,11.58c0,6.4,5.19,11.58,11.58,11.58 c6.4,0,11.58-5.19,11.58-11.58C60.64,55.19,55.46,50,49.06,50z"/><path fill="#FFF" d="M49.06,76.16c-8.05,0-14.58-6.53-14.58-14.58c0-8.05,6.53-14.58,14.58-14.58c8.05,0,14.58,6.53,14.58,14.58 C63.64,69.63,57.11,76.16,49.06,76.16z M49.06,50c-6.4,0-11.58,5.19-11.58,11.58c0,6.4,5.19,11.58,11.58,11.58 c6.4,0,11.58-5.19,11.58-11.58C60.64,55.19,55.46,50,49.06,50z"/><circle fill="#FFF" cx="49.06" cy="61.58" r="10"/></svg>